<svg width="599" height="27" viewBox="0 0 599 27" fill="none" xmlns="http://www.w3.org/2000/svg">
<path d="M-0.00499987 27V1.8H4.195V12.3H21.555V1.8H25.755V27H21.555V16.5H4.195V27H-0.00499987ZM34.2455 27C33.3822 27 32.6005 26.79 31.9005 26.37C31.2005 25.9267 30.6288 25.355 30.1855 24.655C29.7655 23.955 29.5555 23.1733 29.5555 22.31V11.39C29.5555 10.5267 29.7655 9.745 30.1855 9.045C30.6288 8.345 31.2005 7.785 31.9005 7.365C32.6005 6.92167 33.3822 6.7 34.2455 6.7H45.4805C46.3672 6.7 47.1605 6.92167 47.8605 7.365C48.5605 7.785 49.1205 8.345 49.5405 9.045C49.9605 9.745 50.1705 10.5267 50.1705 11.39V22.31C50.1705 23.1733 49.9605 23.955 49.5405 24.655C49.1205 25.355 48.5605 25.9267 47.8605 26.37C47.1605 26.79 46.3672 27 45.4805 27H34.2455ZM34.3855 22.835H45.3405C45.5272 22.835 45.6788 22.7767 45.7955 22.66C45.9355 22.52 46.0055 22.3567 46.0055 22.17V11.53C46.0055 11.3433 45.9355 11.1917 45.7955 11.075C45.6788 10.935 45.5272 10.865 45.3405 10.865H34.3855C34.1988 10.865 34.0355 10.935 33.8955 11.075C33.7788 11.1917 33.7205 11.3433 33.7205 11.53V22.17C33.7205 22.3567 33.7788 22.52 33.8955 22.66C34.0355 22.7767 34.1988 22.835 34.3855 22.835ZM59.329 27L51.349 6.7H55.794L61.009 19.405L66.539 6.7H71.054L76.934 19.475L81.764 6.7H86.244L78.579 27H75.289L68.814 12.685L62.654 27H59.329ZM103.197 27C102.334 27 101.54 26.79 100.817 26.37C100.117 25.9267 99.5571 25.355 99.1371 24.655C98.7171 23.955 98.5071 23.1733 98.5071 22.31V11.39C98.5071 10.5267 98.7171 9.745 99.1371 9.045C99.5571 8.345 100.117 7.785 100.817 7.365C101.54 6.92167 102.334 6.7 103.197 6.7H114.992V0.0499986H119.157V27H103.197ZM103.372 22.835H114.327C114.514 22.835 114.665 22.7767 114.782 22.66C114.922 22.52 114.992 22.3567 114.992 22.17V11.53C114.992 11.3433 114.922 11.1917 114.782 11.075C114.665 10.935 114.514 10.865 114.327 10.865H103.372C103.185 10.865 103.022 10.935 102.882 11.075C102.765 11.1917 102.707 11.3433 102.707 11.53V22.17C102.707 22.3567 102.765 22.52 102.882 22.66C103.022 22.7767 103.185 22.835 103.372 22.835ZM126.702 27C125.838 27 125.057 26.79 124.357 26.37C123.657 25.9267 123.085 25.355 122.642 24.655C122.222 23.955 122.012 23.1733 122.012 22.31V11.39C122.012 10.5267 122.222 9.745 122.642 9.045C123.085 8.345 123.657 7.785 124.357 7.365C125.057 6.92167 125.838 6.7 126.702 6.7H137.937C138.823 6.7 139.617 6.92167 140.317 7.365C141.017 7.785 141.577 8.345 141.997 9.045C142.417 9.745 142.627 10.5267 142.627 11.39V22.31C142.627 23.1733 142.417 23.955 141.997 24.655C141.577 25.355 141.017 25.9267 140.317 26.37C139.617 26.79 138.823 27 137.937 27H126.702ZM126.842 22.835H137.797C137.983 22.835 138.135 22.7767 138.252 22.66C138.392 22.52 138.462 22.3567 138.462 22.17V11.53C138.462 11.3433 138.392 11.1917 138.252 11.075C138.135 10.935 137.983 10.865 137.797 10.865H126.842C126.655 10.865 126.492 10.935 126.352 11.075C126.235 11.1917 126.177 11.3433 126.177 11.53V22.17C126.177 22.3567 126.235 22.52 126.352 22.66C126.492 22.7767 126.655 22.835 126.842 22.835ZM150.935 27C150.072 27 149.29 26.79 148.59 26.37C147.89 25.9267 147.318 25.355 146.875 24.655C146.455 23.955 146.245 23.1733 146.245 22.31V11.39C146.245 10.5267 146.455 9.745 146.875 9.045C147.318 8.345 147.89 7.785 148.59 7.365C149.29 6.92167 150.072 6.7 150.935 6.7H162.17C163.057 6.7 163.85 6.92167 164.55 7.365C165.25 7.785 165.81 8.345 166.23 9.045C166.65 9.745 166.86 10.5267 166.86 11.39V18.95H150.41V22.17C150.41 22.3567 150.468 22.52 150.585 22.66C150.725 22.7767 150.888 22.835 151.075 22.835H166.86V27H150.935ZM150.41 15.135H162.695V11.53C162.695 11.3433 162.625 11.1917 162.485 11.075C162.368 10.935 162.217 10.865 162.03 10.865H151.075C150.888 10.865 150.725 10.935 150.585 11.075C150.468 11.1917 150.41 11.3433 150.41 11.53V15.135ZM174.892 27C174.029 27 173.247 26.79 172.547 26.37C171.847 25.9267 171.276 25.355 170.832 24.655C170.412 23.955 170.202 23.1733 170.202 22.31V21.645H174.367V22.17C174.367 22.3567 174.426 22.52 174.542 22.66C174.682 22.7767 174.846 22.835 175.032 22.835H185.987C186.174 22.835 186.326 22.7767 186.442 22.66C186.582 22.52 186.652 22.3567 186.652 22.17V19.58C186.652 19.4167 186.582 19.2767 186.442 19.16C186.326 19.02 186.174 18.95 185.987 18.95H174.892C174.029 18.95 173.247 18.74 172.547 18.32C171.847 17.8767 171.276 17.305 170.832 16.605C170.412 15.905 170.202 15.1233 170.202 14.26V11.39C170.202 10.5267 170.412 9.745 170.832 9.045C171.276 8.345 171.847 7.785 172.547 7.365C173.247 6.92167 174.029 6.7 174.892 6.7H186.127C187.014 6.7 187.807 6.92167 188.507 7.365C189.207 7.785 189.767 8.345 190.187 9.045C190.631 9.745 190.852 10.5267 190.852 11.39V12.055H186.652V11.53C186.652 11.3433 186.582 11.1917 186.442 11.075C186.326 10.935 186.174 10.865 185.987 10.865H175.032C174.846 10.865 174.682 10.935 174.542 11.075C174.426 11.1917 174.367 11.3433 174.367 11.53V14.12C174.367 14.2833 174.426 14.435 174.542 14.575C174.682 14.6917 174.846 14.75 175.032 14.75H186.127C187.014 14.75 187.807 14.9717 188.507 15.415C189.207 15.835 189.767 16.395 190.187 17.095C190.631 17.795 190.852 18.5767 190.852 19.44V22.31C190.852 23.1733 190.631 23.955 190.187 24.655C189.767 25.355 189.207 25.9267 188.507 26.37C187.807 26.79 187.014 27 186.127 27H174.892ZM209.486 27C208.623 27 207.83 26.79 207.106 26.37C206.406 25.9267 205.846 25.355 205.426 24.655C205.006 23.955 204.796 23.1733 204.796 22.31V0.364999H208.961V6.7H217.081V10.865H208.961V22.17C208.961 22.3567 209.02 22.52 209.136 22.66C209.276 22.7767 209.44 22.835 209.626 22.835H217.081V27H209.486ZM220.383 27V0.0499986H224.548V6.7H236.343C237.183 6.7 237.953 6.92167 238.653 7.365C239.376 7.785 239.948 8.345 240.368 9.045C240.788 9.745 240.998 10.5267 240.998 11.39V27H236.833V11.53C236.833 11.3433 236.763 11.1917 236.623 11.075C236.506 10.935 236.366 10.865 236.203 10.865H225.213C225.05 10.865 224.898 10.935 224.758 11.075C224.618 11.1917 224.548 11.3433 224.548 11.53V27H220.383ZM248.313 27C247.45 27 246.668 26.79 245.968 26.37C245.268 25.9267 244.696 25.355 244.253 24.655C243.833 23.955 243.623 23.1733 243.623 22.31V11.39C243.623 10.5267 243.833 9.745 244.253 9.045C244.696 8.345 245.268 7.785 245.968 7.365C246.668 6.92167 247.45 6.7 248.313 6.7H259.548C260.435 6.7 261.228 6.92167 261.928 7.365C262.628 7.785 263.188 8.345 263.608 9.045C264.028 9.745 264.238 10.5267 264.238 11.39V18.95H247.788V22.17C247.788 22.3567 247.846 22.52 247.963 22.66C248.103 22.7767 248.266 22.835 248.453 22.835H264.238V27H248.313ZM247.788 15.135H260.073V11.53C260.073 11.3433 260.003 11.1917 259.863 11.075C259.746 10.935 259.595 10.865 259.408 10.865H248.453C248.266 10.865 248.103 10.935 247.963 11.075C247.846 11.1917 247.788 11.3433 247.788 11.53V15.135Z" fill="white"/>
<path d="M278.456 27V1.8H283.251L292.701 13.07L302.116 1.8H306.946V27H302.711V7.68L292.701 19.615L282.656 7.715V27H278.456ZM315.442 27C314.578 27 313.797 26.79 313.097 26.37C312.397 25.9267 311.825 25.355 311.382 24.655C310.962 23.955 310.752 23.1733 310.752 22.31V11.39C310.752 10.5267 310.962 9.745 311.382 9.045C311.825 8.345 312.397 7.785 313.097 7.365C313.797 6.92167 314.578 6.7 315.442 6.7H326.677C327.563 6.7 328.357 6.92167 329.057 7.365C329.757 7.785 330.317 8.345 330.737 9.045C331.157 9.745 331.367 10.5267 331.367 11.39V18.95H314.917V22.17C314.917 22.3567 314.975 22.52 315.092 22.66C315.232 22.7767 315.395 22.835 315.582 22.835H331.367V27H315.442ZM314.917 15.135H327.202V11.53C327.202 11.3433 327.132 11.1917 326.992 11.075C326.875 10.935 326.723 10.865 326.537 10.865H315.582C315.395 10.865 315.232 10.935 315.092 11.075C314.975 11.1917 314.917 11.3433 314.917 11.53V15.135ZM339.745 27C338.882 27 338.089 26.79 337.365 26.37C336.665 25.9267 336.105 25.355 335.685 24.655C335.265 23.955 335.055 23.1733 335.055 22.31V0.364999H339.22V6.7H347.34V10.865H339.22V22.17C339.22 22.3567 339.279 22.52 339.395 22.66C339.535 22.7767 339.699 22.835 339.885 22.835H347.34V27H339.745ZM355.364 27C354.501 27 353.708 26.79 352.984 26.37C352.284 25.9267 351.724 25.355 351.304 24.655C350.884 23.955 350.674 23.1733 350.674 22.31V14.75H367.124V11.53C367.124 11.3433 367.054 11.1917 366.914 11.075C366.798 10.935 366.646 10.865 366.459 10.865H350.674V6.7H366.599C367.486 6.7 368.279 6.92167 368.979 7.365C369.679 7.785 370.239 8.345 370.659 9.045C371.079 9.745 371.289 10.5267 371.289 11.39V27H355.364ZM355.504 22.835H367.124V18.565H354.839V22.17C354.839 22.3567 354.898 22.52 355.014 22.66C355.154 22.7767 355.318 22.835 355.504 22.835ZM384.031 27L372.866 6.7H377.696L386.061 22.065L394.426 6.7H399.256L388.021 27H384.031ZM405.198 27C404.334 27 403.553 26.79 402.853 26.37C402.153 25.9267 401.581 25.355 401.138 24.655C400.718 23.955 400.508 23.1733 400.508 22.31V11.39C400.508 10.5267 400.718 9.745 401.138 9.045C401.581 8.345 402.153 7.785 402.853 7.365C403.553 6.92167 404.334 6.7 405.198 6.7H416.433C417.319 6.7 418.113 6.92167 418.813 7.365C419.513 7.785 420.073 8.345 420.493 9.045C420.913 9.745 421.123 10.5267 421.123 11.39V18.95H404.673V22.17C404.673 22.3567 404.731 22.52 404.848 22.66C404.988 22.7767 405.151 22.835 405.338 22.835H421.123V27H405.198ZM404.673 15.135H416.958V11.53C416.958 11.3433 416.888 11.1917 416.748 11.075C416.631 10.935 416.479 10.865 416.293 10.865H405.338C405.151 10.865 404.988 10.935 404.848 11.075C404.731 11.1917 404.673 11.3433 404.673 11.53V15.135ZM424.571 27V11.39C424.571 10.5267 424.781 9.745 425.201 9.045C425.644 8.345 426.216 7.785 426.916 7.365C427.639 6.92167 428.421 6.7 429.261 6.7H440.566V10.865H429.401C429.214 10.865 429.051 10.935 428.911 11.075C428.794 11.1917 428.736 11.3433 428.736 11.53V27H424.571ZM447.646 27C446.783 27 446.001 26.79 445.301 26.37C444.601 25.9267 444.03 25.355 443.586 24.655C443.166 23.955 442.956 23.1733 442.956 22.31V21.645H447.121V22.17C447.121 22.3567 447.18 22.52 447.296 22.66C447.436 22.7767 447.6 22.835 447.786 22.835H458.741C458.928 22.835 459.08 22.7767 459.196 22.66C459.336 22.52 459.406 22.3567 459.406 22.17V19.58C459.406 19.4167 459.336 19.2767 459.196 19.16C459.08 19.02 458.928 18.95 458.741 18.95H447.646C446.783 18.95 446.001 18.74 445.301 18.32C444.601 17.8767 444.03 17.305 443.586 16.605C443.166 15.905 442.956 15.1233 442.956 14.26V11.39C442.956 10.5267 443.166 9.745 443.586 9.045C444.03 8.345 444.601 7.785 445.301 7.365C446.001 6.92167 446.783 6.7 447.646 6.7H458.881C459.768 6.7 460.561 6.92167 461.261 7.365C461.961 7.785 462.521 8.345 462.941 9.045C463.385 9.745 463.606 10.5267 463.606 11.39V12.055H459.406V11.53C459.406 11.3433 459.336 11.1917 459.196 11.075C459.08 10.935 458.928 10.865 458.741 10.865H447.786C447.6 10.865 447.436 10.935 447.296 11.075C447.18 11.1917 447.121 11.3433 447.121 11.53V14.12C447.121 14.2833 447.18 14.435 447.296 14.575C447.436 14.6917 447.6 14.75 447.786 14.75H458.881C459.768 14.75 460.561 14.9717 461.261 15.415C461.961 15.835 462.521 16.395 462.941 17.095C463.385 17.795 463.606 18.5767 463.606 19.44V22.31C463.606 23.1733 463.385 23.955 462.941 24.655C462.521 25.355 461.961 25.9267 461.261 26.37C460.561 26.79 459.768 27 458.881 27H447.646ZM471.13 27C470.267 27 469.485 26.79 468.785 26.37C468.085 25.9267 467.514 25.355 467.07 24.655C466.65 23.955 466.44 23.1733 466.44 22.31V11.39C466.44 10.5267 466.65 9.745 467.07 9.045C467.514 8.345 468.085 7.785 468.785 7.365C469.485 6.92167 470.267 6.7 471.13 6.7H482.365C483.252 6.7 484.045 6.92167 484.745 7.365C485.445 7.785 486.005 8.345 486.425 9.045C486.845 9.745 487.055 10.5267 487.055 11.39V18.95H470.605V22.17C470.605 22.3567 470.664 22.52 470.78 22.66C470.92 22.7767 471.084 22.835 471.27 22.835H487.055V27H471.13ZM470.605 15.135H482.89V11.53C482.89 11.3433 482.82 11.1917 482.68 11.075C482.564 10.935 482.412 10.865 482.225 10.865H471.27C471.084 10.865 470.92 10.935 470.78 11.075C470.664 11.1917 470.605 11.3433 470.605 11.53V15.135ZM508.518 27L500.538 6.7H504.983L510.198 19.405L515.728 6.7H520.243L526.123 19.475L530.953 6.7H535.433L527.768 27H524.478L518.003 12.685L511.843 27H508.518ZM541.506 27C540.643 27 539.861 26.79 539.161 26.37C538.461 25.9267 537.89 25.355 537.446 24.655C537.026 23.955 536.816 23.1733 536.816 22.31V11.39C536.816 10.5267 537.026 9.745 537.446 9.045C537.89 8.345 538.461 7.785 539.161 7.365C539.861 6.92167 540.643 6.7 541.506 6.7H552.741C553.628 6.7 554.421 6.92167 555.121 7.365C555.821 7.785 556.381 8.345 556.801 9.045C557.221 9.745 557.431 10.5267 557.431 11.39V22.31C557.431 23.1733 557.221 23.955 556.801 24.655C556.381 25.355 555.821 25.9267 555.121 26.37C554.421 26.79 553.628 27 552.741 27H541.506ZM541.646 22.835H552.601C552.788 22.835 552.94 22.7767 553.056 22.66C553.196 22.52 553.266 22.3567 553.266 22.17V11.53C553.266 11.3433 553.196 11.1917 553.056 11.075C552.94 10.935 552.788 10.865 552.601 10.865H541.646C541.46 10.865 541.296 10.935 541.156 11.075C541.04 11.1917 540.981 11.3433 540.981 11.53V22.17C540.981 22.3567 541.04 22.52 541.156 22.66C541.296 22.7767 541.46 22.835 541.646 22.835ZM560.435 27V11.39C560.435 10.5267 560.645 9.745 561.065 9.045C561.509 8.345 562.08 7.785 562.78 7.365C563.504 6.92167 564.285 6.7 565.125 6.7H576.43V10.865H565.265C565.079 10.865 564.915 10.935 564.775 11.075C564.659 11.1917 564.6 11.3433 564.6 11.53V27H560.435ZM578.655 27V0.0499986H582.82V14.75H586.915L594.335 6.7H598.955V7.68L590.625 16.85L598.955 26.02V27H594.335L586.915 18.95H582.82V27H578.655Z" fill="url(#paint0_linear_1_61)"/>
<defs>
<linearGradient id="paint0_linear_1_61" x1="79.5795" y1="-8.00001" x2="199.245" y2="197.612" gradientUnits="userSpaceOnUse">
<stop stop-color="#F86CF8"/>
<stop offset="1" stop-color="#64CEF5"/>
</linearGradient>
</defs>
</svg>
