<svg width="187" height="38" viewBox="0 0 187 38" fill="none" xmlns="http://www.w3.org/2000/svg">
<path d="M0.8 38V2H8.05L21.1 17.55L34.1 2H41.4V38H34.75V11.6L21.1 27.85L7.4 11.65V38H0.8ZM53.8367 38C52.5701 38 51.4201 37.6833 50.3867 37.05C49.3534 36.4167 48.5201 35.5833 47.8867 34.55C47.2534 33.5167 46.9367 32.3667 46.9367 31.1V15.9C46.9367 14.6333 47.2534 13.4833 47.8867 12.45C48.5201 11.4167 49.3534 10.5833 50.3867 9.95C51.4201 9.31666 52.5701 9 53.8367 9H69.4867C70.7534 9 71.9034 9.31666 72.9367 9.95C74.0034 10.5833 74.8367 11.4167 75.4367 12.45C76.0701 13.4833 76.3867 14.6333 76.3867 15.9V26.8H53.4867V30.85C53.4867 31.0167 53.5367 31.1667 53.6367 31.3C53.7701 31.4 53.9201 31.45 54.0867 31.45H76.3867V38H53.8367ZM53.4867 20.9H69.8367V16.15C69.8367 15.9833 69.7701 15.85 69.6367 15.75C69.5367 15.6167 69.4034 15.55 69.2367 15.55H54.0867C53.9201 15.55 53.7701 15.6167 53.6367 15.75C53.5367 15.85 53.4867 15.9833 53.4867 16.15V20.9ZM88.5559 38C87.2892 38 86.1392 37.6833 85.1059 37.05C84.0725 36.4167 83.2392 35.5833 82.6059 34.55C81.9725 33.5167 81.6559 32.3667 81.6559 31.1V0.0999992H88.2059V9H99.5059V15.55H88.2059V30.85C88.2059 31.0167 88.2559 31.1667 88.3559 31.3C88.4892 31.4 88.6392 31.45 88.8059 31.45H99.5059V38H88.5559ZM111.455 38C110.188 38 109.022 37.6833 107.955 37.05C106.922 36.4167 106.088 35.5833 105.455 34.55C104.855 33.5167 104.555 32.3667 104.555 31.1V20.2H127.455V16.15C127.455 15.9833 127.388 15.85 127.255 15.75C127.155 15.6167 127.022 15.55 126.855 15.55H104.555V9H127.105C128.372 9 129.522 9.31666 130.555 9.95C131.622 10.5833 132.455 11.4167 133.055 12.45C133.688 13.4833 134.005 14.6333 134.005 15.9V38H111.455ZM111.705 31.45H127.455V26.1H111.105V30.85C111.105 31.0167 111.155 31.1667 111.255 31.3C111.388 31.4 111.538 31.45 111.705 31.45ZM159.272 38L138.422 2H146.122L162.222 30L178.372 2H186.022L165.172 38H159.272Z" fill="url(#paint0_linear_1_142)"/>
<defs>
<linearGradient id="paint0_linear_1_142" x1="23.6122" y1="-13" x2="153.641" y2="35.9885" gradientUnits="userSpaceOnUse">
<stop stop-color="#F86CF8"/>
<stop offset="1" stop-color="#64CEF5"/>
</linearGradient>
</defs>
</svg>
