<svg width="329" height="42" viewBox="0 0 329 42" fill="none" xmlns="http://www.w3.org/2000/svg">
<path d="M0.0800001 42V2.4H8.055L22.41 19.505L36.71 2.4H44.74V42H37.425V12.96L22.41 30.835L7.34 13.015V42H0.0800001ZM58.4204 42C57.0271 42 55.7621 41.6517 54.6254 40.955C53.4887 40.2583 52.5721 39.3417 51.8754 38.205C51.1787 37.0683 50.8304 35.8033 50.8304 34.41V17.69C50.8304 16.2967 51.1787 15.0317 51.8754 13.895C52.5721 12.7583 53.4887 11.8417 54.6254 11.145C55.7621 10.4483 57.0271 10.1 58.4204 10.1H75.6354C77.0287 10.1 78.2937 10.4483 79.4304 11.145C80.6037 11.8417 81.5204 12.7583 82.1804 13.895C82.8771 15.0317 83.2254 16.2967 83.2254 17.69V29.68H58.0354V34.135C58.0354 34.3183 58.0904 34.4833 58.2004 34.63C58.3471 34.74 58.5121 34.795 58.6954 34.795H83.2254V42H58.4204ZM58.0354 23.19H76.0204V17.965C76.0204 17.7817 75.9471 17.635 75.8004 17.525C75.6904 17.3783 75.5437 17.305 75.3604 17.305H58.6954C58.5121 17.305 58.3471 17.3783 58.2004 17.525C58.0904 17.635 58.0354 17.7817 58.0354 17.965V23.19ZM96.6114 42C95.2181 42 93.9531 41.6517 92.8164 40.955C91.6798 40.2583 90.7631 39.3417 90.0664 38.205C89.3698 37.0683 89.0214 35.8033 89.0214 34.41V0.309999H96.2264V10.1H108.656V17.305H96.2264V34.135C96.2264 34.3183 96.2814 34.4833 96.3914 34.63C96.5381 34.74 96.7031 34.795 96.8864 34.795H108.656V42H96.6114ZM121.801 42C120.407 42 119.124 41.6517 117.951 40.955C116.814 40.2583 115.897 39.3417 115.201 38.205C114.541 37.0683 114.211 35.8033 114.211 34.41V22.42H139.401V17.965C139.401 17.7817 139.327 17.635 139.181 17.525C139.071 17.3783 138.924 17.305 138.741 17.305H114.211V10.1H139.016C140.409 10.1 141.674 10.4483 142.811 11.145C143.984 11.8417 144.901 12.7583 145.561 13.895C146.257 15.0317 146.606 16.2967 146.606 17.69V42H121.801ZM122.076 34.795H139.401V28.91H121.416V34.135C121.416 34.3183 121.471 34.4833 121.581 34.63C121.727 34.74 121.892 34.795 122.076 34.795ZM166.467 42L148.922 10.1H157.227L169.822 33.255L182.362 10.1H190.667L173.067 42H166.467ZM199.949 42C198.555 42 197.29 41.6517 196.154 40.955C195.017 40.2583 194.1 39.3417 193.404 38.205C192.707 37.0683 192.359 35.8033 192.359 34.41V17.69C192.359 16.2967 192.707 15.0317 193.404 13.895C194.1 12.7583 195.017 11.8417 196.154 11.145C197.29 10.4483 198.555 10.1 199.949 10.1H217.164C218.557 10.1 219.822 10.4483 220.959 11.145C222.132 11.8417 223.049 12.7583 223.709 13.895C224.405 15.0317 224.754 16.2967 224.754 17.69V29.68H199.564V34.135C199.564 34.3183 199.619 34.4833 199.729 34.63C199.875 34.74 200.04 34.795 200.224 34.795H224.754V42H199.949ZM199.564 23.19H217.549V17.965C217.549 17.7817 217.475 17.635 217.329 17.525C217.219 17.3783 217.072 17.305 216.889 17.305H200.224C200.04 17.305 199.875 17.3783 199.729 17.525C199.619 17.635 199.564 17.7817 199.564 17.965V23.19ZM230.173 42V17.69C230.173 16.2967 230.521 15.0317 231.218 13.895C231.914 12.7583 232.831 11.8417 233.968 11.145C235.141 10.4483 236.406 10.1 237.763 10.1H255.473V17.305H238.038C237.854 17.305 237.689 17.3783 237.543 17.525C237.433 17.635 237.378 17.7817 237.378 17.965V42H230.173ZM267.03 42C265.636 42 264.371 41.6517 263.235 40.955C262.098 40.2583 261.181 39.3417 260.485 38.205C259.788 37.0683 259.44 35.8033 259.44 34.41V33.2H266.645V34.135C266.645 34.3183 266.7 34.4833 266.81 34.63C266.956 34.74 267.121 34.795 267.305 34.795H283.97C284.153 34.795 284.3 34.74 284.41 34.63C284.556 34.4833 284.63 34.3183 284.63 34.135V30.34C284.63 30.1567 284.556 30.01 284.41 29.9C284.3 29.7533 284.153 29.68 283.97 29.68H267.03C265.636 29.68 264.371 29.3317 263.235 28.635C262.098 27.9383 261.181 27.0217 260.485 25.885C259.788 24.7483 259.44 23.4833 259.44 22.09V17.69C259.44 16.2967 259.788 15.0317 260.485 13.895C261.181 12.7583 262.098 11.8417 263.235 11.145C264.371 10.4483 265.636 10.1 267.03 10.1H284.245C285.675 10.1 286.958 10.4483 288.095 11.145C289.231 11.8417 290.148 12.7583 290.845 13.895C291.541 15.0317 291.89 16.2967 291.89 17.69V18.9H284.63V17.965C284.63 17.7817 284.556 17.635 284.41 17.525C284.3 17.3783 284.153 17.305 283.97 17.305H267.305C267.121 17.305 266.956 17.3783 266.81 17.525C266.7 17.635 266.645 17.7817 266.645 17.965V21.76C266.645 21.9433 266.7 22.1083 266.81 22.255C266.956 22.365 267.121 22.42 267.305 22.42H284.245C285.675 22.42 286.958 22.7683 288.095 23.465C289.231 24.1617 290.148 25.0783 290.845 26.215C291.541 27.3517 291.89 28.6167 291.89 30.01V34.41C291.89 35.8033 291.541 37.0683 290.845 38.205C290.148 39.3417 289.231 40.2583 288.095 40.955C286.958 41.6517 285.675 42 284.245 42H267.03ZM303.879 42C302.486 42 301.221 41.6517 300.084 40.955C298.948 40.2583 298.031 39.3417 297.334 38.205C296.638 37.0683 296.289 35.8033 296.289 34.41V17.69C296.289 16.2967 296.638 15.0317 297.334 13.895C298.031 12.7583 298.948 11.8417 300.084 11.145C301.221 10.4483 302.486 10.1 303.879 10.1H321.094C322.488 10.1 323.753 10.4483 324.889 11.145C326.063 11.8417 326.979 12.7583 327.639 13.895C328.336 15.0317 328.684 16.2967 328.684 17.69V29.68H303.494V34.135C303.494 34.3183 303.549 34.4833 303.659 34.63C303.806 34.74 303.971 34.795 304.154 34.795H328.684V42H303.879ZM303.494 23.19H321.479V17.965C321.479 17.7817 321.406 17.635 321.259 17.525C321.149 17.3783 321.003 17.305 320.819 17.305H304.154C303.971 17.305 303.806 17.3783 303.659 17.525C303.549 17.635 303.494 17.7817 303.494 17.965V23.19Z" fill="url(#paint0_linear_1_26)"/>
<defs>
<linearGradient id="paint0_linear_1_26" x1="46.1916" y1="-15" x2="249.767" y2="113.894" gradientUnits="userSpaceOnUse">
<stop stop-color="#F86CF8"/>
<stop offset="1" stop-color="#64CEF5"/>
</linearGradient>
</defs>
</svg>
