<svg width="82" height="17" viewBox="0 0 82 17" fill="none" xmlns="http://www.w3.org/2000/svg">
<path d="M0.232 17V1.16H3.422L9.164 8.002L14.884 1.16H18.096V17H15.17V5.384L9.164 12.534L3.136 5.406V17H0.232ZM23.5682 17C23.0108 17 22.5048 16.8607 22.0502 16.582C21.5955 16.3033 21.2288 15.9367 20.9502 15.482C20.6715 15.0273 20.5322 14.5213 20.5322 13.964V7.276C20.5322 6.71867 20.6715 6.21267 20.9502 5.758C21.2288 5.30333 21.5955 4.93667 22.0502 4.658C22.5048 4.37933 23.0108 4.24 23.5682 4.24H30.4542C31.0115 4.24 31.5175 4.37933 31.9722 4.658C32.4415 4.93667 32.8082 5.30333 33.0722 5.758C33.3508 6.21267 33.4902 6.71867 33.4902 7.276V12.072H23.4142V13.854C23.4142 13.9273 23.4362 13.9933 23.4802 14.052C23.5388 14.096 23.6048 14.118 23.6782 14.118H33.4902V17H23.5682ZM23.4142 9.476H30.6082V7.386C30.6082 7.31267 30.5788 7.254 30.5202 7.21C30.4762 7.15133 30.4175 7.122 30.3442 7.122H23.6782C23.6048 7.122 23.5388 7.15133 23.4802 7.21C23.4362 7.254 23.4142 7.31267 23.4142 7.386V9.476ZM38.8446 17C38.2872 17 37.7812 16.8607 37.3266 16.582C36.8719 16.3033 36.5052 15.9367 36.2266 15.482C35.9479 15.0273 35.8086 14.5213 35.8086 13.964V0.324H38.6906V4.24H43.6626V7.122H38.6906V13.854C38.6906 13.9273 38.7126 13.9933 38.7566 14.052C38.8152 14.096 38.8812 14.118 38.9546 14.118H43.6626V17H38.8446ZM48.9202 17C48.3629 17 47.8496 16.8607 47.3802 16.582C46.9256 16.3033 46.5589 15.9367 46.2802 15.482C46.0162 15.0273 45.8842 14.5213 45.8842 13.964V9.168H55.9602V7.386C55.9602 7.31267 55.9309 7.254 55.8722 7.21C55.8282 7.15133 55.7696 7.122 55.6962 7.122H45.8842V4.24H55.8062C56.3636 4.24 56.8696 4.37933 57.3242 4.658C57.7936 4.93667 58.1602 5.30333 58.4242 5.758C58.7029 6.21267 58.8422 6.71867 58.8422 7.276V17H48.9202ZM49.0302 14.118H55.9602V11.764H48.7662V13.854C48.7662 13.9273 48.7882 13.9933 48.8322 14.052C48.8909 14.096 48.9569 14.118 49.0302 14.118ZM69.9596 17L60.7856 1.16H64.1736L71.2576 13.48L78.3636 1.16H81.7296L72.5556 17H69.9596Z" fill="white"/>
</svg>
