<svg width="370" height="35" viewBox="0 0 370 35" fill="none" xmlns="http://www.w3.org/2000/svg">
<path d="M4.74769 27C3.88436 27 3.09102 26.79 2.36769 26.37C1.64436 25.95 1.07269 25.3783 0.652691 24.655C0.232691 23.9317 0.0226905 23.1383 0.0226905 22.275V6.525C0.0226905 5.66167 0.232691 4.86833 0.652691 4.145C1.07269 3.42167 1.64436 2.85 2.36769 2.43C3.09102 2.01 3.88436 1.8 4.74769 1.8H20.4977C21.361 1.8 22.1427 2.01 22.8427 2.43C23.566 2.85 24.1377 3.42167 24.5577 4.145C25.001 4.86833 25.2227 5.66167 25.2227 6.525V22.275C25.2227 23.1383 25.001 23.9317 24.5577 24.655C24.1377 25.3783 23.566 25.95 22.8427 26.37C22.1427 26.79 21.361 27 20.4977 27H4.74769ZM4.85269 22.765H20.3577C20.521 22.765 20.661 22.7067 20.7777 22.59C20.9177 22.4733 20.9877 22.3217 20.9877 22.135V6.665C20.9877 6.47833 20.9177 6.32667 20.7777 6.21C20.661 6.09333 20.521 6.035 20.3577 6.035H4.85269C4.68936 6.035 4.53769 6.09333 4.39769 6.21C4.28102 6.32667 4.22269 6.47833 4.22269 6.665V22.135C4.22269 22.3217 4.28102 22.4733 4.39769 22.59C4.53769 22.7067 4.68936 22.765 4.85269 22.765ZM33.6621 27C32.7987 27 32.0054 26.79 31.2821 26.37C30.5821 25.9267 30.0221 25.355 29.6021 24.655C29.1821 23.955 28.9721 23.1733 28.9721 22.31V6.7H33.1371V22.17C33.1371 22.3567 33.1954 22.52 33.3121 22.66C33.4521 22.7767 33.6154 22.835 33.8021 22.835H44.7571C44.9437 22.835 45.0954 22.7767 45.2121 22.66C45.3521 22.52 45.4221 22.3567 45.4221 22.17V6.7H49.5871V22.31C49.5871 23.1733 49.3771 23.955 48.9571 24.655C48.5371 25.355 47.9771 25.9267 47.2771 26.37C46.5771 26.79 45.7837 27 44.8971 27H33.6621ZM53.273 27V11.39C53.273 10.5267 53.483 9.745 53.903 9.045C54.3463 8.345 54.918 7.785 55.618 7.365C56.3413 6.92167 57.123 6.7 57.963 6.7H69.268V10.865H58.103C57.9163 10.865 57.753 10.935 57.613 11.075C57.4963 11.1917 57.438 11.3433 57.438 11.53V27H53.273ZM82.0222 27V1.765H86.2222V22.765H107.222V27H82.0222ZM113.813 27C112.949 27 112.156 26.79 111.433 26.37C110.733 25.9267 110.173 25.355 109.753 24.655C109.333 23.955 109.123 23.1733 109.123 22.31V14.75H125.573V11.53C125.573 11.3433 125.503 11.1917 125.363 11.075C125.246 10.935 125.094 10.865 124.908 10.865H109.123V6.7H125.048C125.934 6.7 126.728 6.92167 127.428 7.365C128.128 7.785 128.688 8.345 129.108 9.045C129.528 9.745 129.738 10.5267 129.738 11.39V27H113.813ZM113.953 22.835H125.573V18.565H113.288V22.17C113.288 22.3567 113.346 22.52 113.463 22.66C113.603 22.7767 113.766 22.835 113.953 22.835ZM138.149 27C137.286 27 136.493 26.79 135.769 26.37C135.069 25.9267 134.509 25.355 134.089 24.655C133.669 23.955 133.459 23.1733 133.459 22.31V0.364999H137.624V6.7H145.744V10.865H137.624V22.17C137.624 22.3567 137.683 22.52 137.799 22.66C137.939 22.7767 138.103 22.835 138.289 22.835H145.744V27H138.149ZM153.187 27C152.323 27 151.542 26.79 150.842 26.37C150.142 25.9267 149.57 25.355 149.127 24.655C148.707 23.955 148.497 23.1733 148.497 22.31V11.39C148.497 10.5267 148.707 9.745 149.127 9.045C149.57 8.345 150.142 7.785 150.842 7.365C151.542 6.92167 152.323 6.7 153.187 6.7H164.422C165.308 6.7 166.102 6.92167 166.802 7.365C167.502 7.785 168.062 8.345 168.482 9.045C168.902 9.745 169.112 10.5267 169.112 11.39V18.95H152.662V22.17C152.662 22.3567 152.72 22.52 152.837 22.66C152.977 22.7767 153.14 22.835 153.327 22.835H169.112V27H153.187ZM152.662 15.135H164.947V11.53C164.947 11.3433 164.877 11.1917 164.737 11.075C164.62 10.935 164.468 10.865 164.282 10.865H153.327C153.14 10.865 152.977 10.935 152.837 11.075C152.72 11.1917 152.662 11.3433 152.662 11.53V15.135ZM177.144 27C176.281 27 175.499 26.79 174.799 26.37C174.099 25.9267 173.528 25.355 173.084 24.655C172.664 23.955 172.454 23.1733 172.454 22.31V21.645H176.619V22.17C176.619 22.3567 176.678 22.52 176.794 22.66C176.934 22.7767 177.098 22.835 177.284 22.835H188.239C188.426 22.835 188.578 22.7767 188.694 22.66C188.834 22.52 188.904 22.3567 188.904 22.17V19.58C188.904 19.4167 188.834 19.2767 188.694 19.16C188.578 19.02 188.426 18.95 188.239 18.95H177.144C176.281 18.95 175.499 18.74 174.799 18.32C174.099 17.8767 173.528 17.305 173.084 16.605C172.664 15.905 172.454 15.1233 172.454 14.26V11.39C172.454 10.5267 172.664 9.745 173.084 9.045C173.528 8.345 174.099 7.785 174.799 7.365C175.499 6.92167 176.281 6.7 177.144 6.7H188.379C189.266 6.7 190.059 6.92167 190.759 7.365C191.459 7.785 192.019 8.345 192.439 9.045C192.883 9.745 193.104 10.5267 193.104 11.39V12.055H188.904V11.53C188.904 11.3433 188.834 11.1917 188.694 11.075C188.578 10.935 188.426 10.865 188.239 10.865H177.284C177.098 10.865 176.934 10.935 176.794 11.075C176.678 11.1917 176.619 11.3433 176.619 11.53V14.12C176.619 14.2833 176.678 14.435 176.794 14.575C176.934 14.6917 177.098 14.75 177.284 14.75H188.379C189.266 14.75 190.059 14.9717 190.759 15.415C191.459 15.835 192.019 16.395 192.439 17.095C192.883 17.795 193.104 18.5767 193.104 19.44V22.31C193.104 23.1733 192.883 23.955 192.439 24.655C192.019 25.355 191.459 25.9267 190.759 26.37C190.059 26.79 189.266 27 188.379 27H177.144ZM201.313 27C200.45 27 199.657 26.79 198.933 26.37C198.233 25.9267 197.673 25.355 197.253 24.655C196.833 23.955 196.623 23.1733 196.623 22.31V0.364999H200.788V6.7H208.908V10.865H200.788V22.17C200.788 22.3567 200.847 22.52 200.963 22.66C201.103 22.7767 201.267 22.835 201.453 22.835H208.908V27H201.313Z" fill="white"/>
<path d="M222.331 27V6.525C222.331 5.66167 222.541 4.86833 222.961 4.145C223.381 3.42167 223.952 2.85 224.676 2.43C225.399 2.01 226.192 1.8 227.056 1.8H242.806C243.669 1.8 244.451 2.01 245.151 2.43C245.874 2.85 246.446 3.42167 246.866 4.145C247.309 4.86833 247.531 5.66167 247.531 6.525V27H243.296V18.355H226.531V27H222.331ZM226.531 14.155H243.296V6.665C243.296 6.47833 243.226 6.32667 243.086 6.21C242.969 6.09333 242.829 6.035 242.666 6.035H227.161C226.997 6.035 226.846 6.09333 226.706 6.21C226.589 6.32667 226.531 6.47833 226.531 6.665V14.155ZM256.033 27C255.17 27 254.388 26.79 253.688 26.37C252.988 25.9267 252.417 25.355 251.973 24.655C251.553 23.955 251.343 23.1733 251.343 22.31V11.39C251.343 10.5267 251.553 9.745 251.973 9.045C252.417 8.345 252.988 7.785 253.688 7.365C254.388 6.92167 255.17 6.7 256.033 6.7H271.923V10.865H256.173C255.987 10.865 255.823 10.935 255.683 11.075C255.567 11.1917 255.508 11.3433 255.508 11.53V22.17C255.508 22.3567 255.567 22.52 255.683 22.66C255.823 22.7767 255.987 22.835 256.173 22.835H271.958V27H256.033ZM279.517 27C278.653 27 277.86 26.79 277.137 26.37C276.437 25.9267 275.877 25.355 275.457 24.655C275.037 23.955 274.827 23.1733 274.827 22.31V0.364999H278.992V6.7H287.112V10.865H278.992V22.17C278.992 22.3567 279.05 22.52 279.167 22.66C279.307 22.7767 279.47 22.835 279.657 22.835H287.112V27H279.517ZM289.967 27V6.7H294.132V27H289.967ZM289.967 4.25V0.0499986H294.132V4.25H289.967ZM307.806 27L296.641 6.7H301.471L309.836 22.065L318.201 6.7H323.031L311.796 27H307.806ZM325.548 27V6.7H329.713V27H325.548ZM325.548 4.25V0.0499986H329.713V4.25H325.548ZM338.306 27C337.442 27 336.649 26.79 335.926 26.37C335.226 25.9267 334.666 25.355 334.246 24.655C333.826 23.955 333.616 23.1733 333.616 22.31V0.364999H337.781V6.7H345.901V10.865H337.781V22.17C337.781 22.3567 337.839 22.52 337.956 22.66C338.096 22.7767 338.259 22.835 338.446 22.835H345.901V27H338.306ZM351.974 34.63V30.43H364.329C364.492 30.43 364.632 30.36 364.749 30.22C364.889 30.1033 364.959 29.9633 364.959 29.8V27H353.199C352.359 27 351.577 26.79 350.854 26.37C350.154 25.9267 349.582 25.355 349.139 24.655C348.719 23.955 348.509 23.1733 348.509 22.31V6.77H352.674V22.17C352.674 22.3567 352.732 22.52 352.849 22.66C352.989 22.7767 353.152 22.835 353.339 22.835H364.329C364.492 22.835 364.632 22.7767 364.749 22.66C364.889 22.52 364.959 22.3567 364.959 22.17V6.77H369.124V29.94C369.124 30.8267 368.914 31.62 368.494 32.32C368.097 33.02 367.537 33.58 366.814 34C366.114 34.42 365.332 34.63 364.469 34.63H351.974Z" fill="url(#paint0_linear_1_122)"/>
<defs>
<linearGradient id="paint0_linear_1_122" x1="48.6794" y1="-8.00001" x2="186.039" y2="138.234" gradientUnits="userSpaceOnUse">
<stop stop-color="#F86CF8"/>
<stop offset="1" stop-color="#64CEF5"/>
</linearGradient>
</defs>
</svg>
