<svg width="367" height="28" viewBox="0 0 367 28" fill="none" xmlns="http://www.w3.org/2000/svg">
<path d="M9.395 27.5L0.225 2.3H4.705L11.075 19.765L17.445 2.3H21.715L28.12 19.765L34.49 2.3H38.97L29.8 27.5H26.405L19.58 8.775L12.755 27.5H9.395ZM41.598 27.5V0.549999H45.763V7.2H57.558C58.398 7.2 59.168 7.42167 59.868 7.865C60.5913 8.285 61.163 8.845 61.583 9.545C62.003 10.245 62.213 11.0267 62.213 11.89V27.5H58.048V12.03C58.048 11.8433 57.978 11.6917 57.838 11.575C57.7213 11.435 57.5813 11.365 57.418 11.365H46.428C46.2647 11.365 46.113 11.435 45.973 11.575C45.833 11.6917 45.763 11.8433 45.763 12.03V27.5H41.598ZM69.6653 27.5C68.8019 27.5 68.0086 27.29 67.2853 26.87C66.5853 26.4267 66.0253 25.855 65.6053 25.155C65.1853 24.455 64.9753 23.6733 64.9753 22.81V15.25H81.4253V12.03C81.4253 11.8433 81.3553 11.6917 81.2153 11.575C81.0986 11.435 80.9469 11.365 80.7603 11.365H64.9753V7.2H80.9003C81.7869 7.2 82.5803 7.42167 83.2803 7.865C83.9803 8.285 84.5403 8.845 84.9603 9.545C85.3803 10.245 85.5903 11.0267 85.5903 11.89V27.5H69.6653ZM69.8053 23.335H81.4253V19.065H69.1403V22.67C69.1403 22.8567 69.1986 23.02 69.3153 23.16C69.4553 23.2767 69.6186 23.335 69.8053 23.335ZM94.002 27.5C93.1387 27.5 92.3454 27.29 91.622 26.87C90.922 26.4267 90.362 25.855 89.942 25.155C89.522 24.455 89.312 23.6733 89.312 22.81V0.864999H93.477V7.2H101.597V11.365H93.477V22.67C93.477 22.8567 93.5354 23.02 93.652 23.16C93.792 23.2767 93.9554 23.335 94.142 23.335H101.597V27.5H94.002ZM114.809 27.5V7.2H118.974V27.5H114.809ZM114.809 4.75V0.549999H118.974V4.75H114.809ZM127.767 27.5C126.904 27.5 126.122 27.29 125.422 26.87C124.722 26.4267 124.151 25.855 123.707 25.155C123.287 24.455 123.077 23.6733 123.077 22.81V22.145H127.242V22.67C127.242 22.8567 127.301 23.02 127.417 23.16C127.557 23.2767 127.721 23.335 127.907 23.335H138.862C139.049 23.335 139.201 23.2767 139.317 23.16C139.457 23.02 139.527 22.8567 139.527 22.67V20.08C139.527 19.9167 139.457 19.7767 139.317 19.66C139.201 19.52 139.049 19.45 138.862 19.45H127.767C126.904 19.45 126.122 19.24 125.422 18.82C124.722 18.3767 124.151 17.805 123.707 17.105C123.287 16.405 123.077 15.6233 123.077 14.76V11.89C123.077 11.0267 123.287 10.245 123.707 9.545C124.151 8.845 124.722 8.285 125.422 7.865C126.122 7.42167 126.904 7.2 127.767 7.2H139.002C139.889 7.2 140.682 7.42167 141.382 7.865C142.082 8.285 142.642 8.845 143.062 9.545C143.506 10.245 143.727 11.0267 143.727 11.89V12.555H139.527V12.03C139.527 11.8433 139.457 11.6917 139.317 11.575C139.201 11.435 139.049 11.365 138.862 11.365H127.907C127.721 11.365 127.557 11.435 127.417 11.575C127.301 11.6917 127.242 11.8433 127.242 12.03V14.62C127.242 14.7833 127.301 14.935 127.417 15.075C127.557 15.1917 127.721 15.25 127.907 15.25H139.002C139.889 15.25 140.682 15.4717 141.382 15.915C142.082 16.335 142.642 16.895 143.062 17.595C143.506 18.295 143.727 19.0767 143.727 19.94V22.81C143.727 23.6733 143.506 24.455 143.062 25.155C142.642 25.855 142.082 26.4267 141.382 26.87C140.682 27.29 139.889 27.5 139.002 27.5H127.767Z" fill="white"/>
<path d="M157.776 27.5V2.3H162.571L172.021 13.57L181.436 2.3H186.266V27.5H182.031V8.18L172.021 20.115L161.976 8.215V27.5H157.776ZM194.762 27.5C193.899 27.5 193.117 27.29 192.417 26.87C191.717 26.4267 191.145 25.855 190.702 25.155C190.282 24.455 190.072 23.6733 190.072 22.81V11.89C190.072 11.0267 190.282 10.245 190.702 9.545C191.145 8.845 191.717 8.285 192.417 7.865C193.117 7.42167 193.899 7.2 194.762 7.2H205.997C206.884 7.2 207.677 7.42167 208.377 7.865C209.077 8.285 209.637 8.845 210.057 9.545C210.477 10.245 210.687 11.0267 210.687 11.89V19.45H194.237V22.67C194.237 22.8567 194.295 23.02 194.412 23.16C194.552 23.2767 194.715 23.335 194.902 23.335H210.687V27.5H194.762ZM194.237 15.635H206.522V12.03C206.522 11.8433 206.452 11.6917 206.312 11.575C206.195 11.435 206.044 11.365 205.857 11.365H194.902C194.715 11.365 194.552 11.435 194.412 11.575C194.295 11.6917 194.237 11.8433 194.237 12.03V15.635ZM219.066 27.5C218.202 27.5 217.409 27.29 216.686 26.87C215.986 26.4267 215.426 25.855 215.006 25.155C214.586 24.455 214.376 23.6733 214.376 22.81V0.864999H218.541V7.2H226.661V11.365H218.541V22.67C218.541 22.8567 218.599 23.02 218.716 23.16C218.856 23.2767 219.019 23.335 219.206 23.335H226.661V27.5H219.066ZM234.685 27.5C233.821 27.5 233.028 27.29 232.305 26.87C231.605 26.4267 231.045 25.855 230.625 25.155C230.205 24.455 229.995 23.6733 229.995 22.81V15.25H246.445V12.03C246.445 11.8433 246.375 11.6917 246.235 11.575C246.118 11.435 245.966 11.365 245.78 11.365H229.995V7.2H245.92C246.806 7.2 247.6 7.42167 248.3 7.865C249 8.285 249.56 8.845 249.98 9.545C250.4 10.245 250.61 11.0267 250.61 11.89V27.5H234.685ZM234.825 23.335H246.445V19.065H234.16V22.67C234.16 22.8567 234.218 23.02 234.335 23.16C234.475 23.2767 234.638 23.335 234.825 23.335ZM263.351 27.5L252.186 7.2H257.016L265.381 22.565L273.746 7.2H278.576L267.341 27.5H263.351ZM284.518 27.5C283.655 27.5 282.873 27.29 282.173 26.87C281.473 26.4267 280.901 25.855 280.458 25.155C280.038 24.455 279.828 23.6733 279.828 22.81V11.89C279.828 11.0267 280.038 10.245 280.458 9.545C280.901 8.845 281.473 8.285 282.173 7.865C282.873 7.42167 283.655 7.2 284.518 7.2H295.753C296.64 7.2 297.433 7.42167 298.133 7.865C298.833 8.285 299.393 8.845 299.813 9.545C300.233 10.245 300.443 11.0267 300.443 11.89V19.45H283.993V22.67C283.993 22.8567 284.051 23.02 284.168 23.16C284.308 23.2767 284.471 23.335 284.658 23.335H300.443V27.5H284.518ZM283.993 15.635H296.278V12.03C296.278 11.8433 296.208 11.6917 296.068 11.575C295.951 11.435 295.8 11.365 295.613 11.365H284.658C284.471 11.365 284.308 11.435 284.168 11.575C284.051 11.6917 283.993 11.8433 283.993 12.03V15.635ZM303.891 27.5V11.89C303.891 11.0267 304.101 10.245 304.521 9.545C304.965 8.845 305.536 8.285 306.236 7.865C306.96 7.42167 307.741 7.2 308.581 7.2H319.886V11.365H308.721C308.535 11.365 308.371 11.435 308.231 11.575C308.115 11.6917 308.056 11.8433 308.056 12.03V27.5H303.891ZM326.967 27.5C326.103 27.5 325.322 27.29 324.622 26.87C323.922 26.4267 323.35 25.855 322.907 25.155C322.487 24.455 322.277 23.6733 322.277 22.81V22.145H326.442V22.67C326.442 22.8567 326.5 23.02 326.617 23.16C326.757 23.2767 326.92 23.335 327.107 23.335H338.062C338.248 23.335 338.4 23.2767 338.517 23.16C338.657 23.02 338.727 22.8567 338.727 22.67V20.08C338.727 19.9167 338.657 19.7767 338.517 19.66C338.4 19.52 338.248 19.45 338.062 19.45H326.967C326.103 19.45 325.322 19.24 324.622 18.82C323.922 18.3767 323.35 17.805 322.907 17.105C322.487 16.405 322.277 15.6233 322.277 14.76V11.89C322.277 11.0267 322.487 10.245 322.907 9.545C323.35 8.845 323.922 8.285 324.622 7.865C325.322 7.42167 326.103 7.2 326.967 7.2H338.202C339.088 7.2 339.882 7.42167 340.582 7.865C341.282 8.285 341.842 8.845 342.262 9.545C342.705 10.245 342.927 11.0267 342.927 11.89V12.555H338.727V12.03C338.727 11.8433 338.657 11.6917 338.517 11.575C338.4 11.435 338.248 11.365 338.062 11.365H327.107C326.92 11.365 326.757 11.435 326.617 11.575C326.5 11.6917 326.442 11.8433 326.442 12.03V14.62C326.442 14.7833 326.5 14.935 326.617 15.075C326.757 15.1917 326.92 15.25 327.107 15.25H338.202C339.088 15.25 339.882 15.4717 340.582 15.915C341.282 16.335 341.842 16.895 342.262 17.595C342.705 18.295 342.927 19.0767 342.927 19.94V22.81C342.927 23.6733 342.705 24.455 342.262 25.155C341.842 25.855 341.282 26.4267 340.582 26.87C339.882 27.29 339.088 27.5 338.202 27.5H326.967ZM350.451 27.5C349.587 27.5 348.806 27.29 348.106 26.87C347.406 26.4267 346.834 25.855 346.391 25.155C345.971 24.455 345.761 23.6733 345.761 22.81V11.89C345.761 11.0267 345.971 10.245 346.391 9.545C346.834 8.845 347.406 8.285 348.106 7.865C348.806 7.42167 349.587 7.2 350.451 7.2H361.686C362.572 7.2 363.366 7.42167 364.066 7.865C364.766 8.285 365.326 8.845 365.746 9.545C366.166 10.245 366.376 11.0267 366.376 11.89V19.45H349.926V22.67C349.926 22.8567 349.984 23.02 350.101 23.16C350.241 23.2767 350.404 23.335 350.591 23.335H366.376V27.5H350.451ZM349.926 15.635H362.211V12.03C362.211 11.8433 362.141 11.6917 362.001 11.575C361.884 11.435 361.732 11.365 361.546 11.365H350.591C350.404 11.365 350.241 11.435 350.101 11.575C349.984 11.6917 349.926 11.8433 349.926 12.03V15.635Z" fill="url(#paint0_linear_1_55)"/>
<defs>
<linearGradient id="paint0_linear_1_55" x1="49.1402" y1="-7.50001" x2="186.564" y2="137.627" gradientUnits="userSpaceOnUse">
<stop stop-color="#F86CF8"/>
<stop offset="1" stop-color="#64CEF5"/>
</linearGradient>
</defs>
</svg>
